<svg width="120" height="120" viewBox="0 0 120 120" fill="none" xmlns="http://www.w3.org/2000/svg">
  <circle cx="60" cy="60" r="56" fill="#3A291B" stroke="#C07A2B" stroke-width="4" />
  <path d="M40 78c0-10 8-14 20-14s20 4 20 14c0 2-2 4-4 4H44c-2 0-4-2-4-4Z" fill="#C07A2B"/>
  <path d="M48 50c0-6 5-12 12-12s12 6 12 12c0 4-2 8-5 10l3 8H50l3-8c-3-2-5-6-5-10Z" fill="#E8D1B2"/>
  <circle cx="60" cy="49" r="5" fill="#3A291B"/>
  <path d="M46 92h28" stroke="#C07A2B" stroke-width="4" stroke-linecap="round"/>
  <text x="60" y="20" text-anchor="middle" font-family="Segoe UI, Arial" font-size="14" fill="#E8D1B2" font-weight="600">Fusion</text>
  <text x="60" y="36" text-anchor="middle" font-family="Segoe UI, Arial" font-size="14" fill="#E8D1B2" font-weight="600">Feast</text>
</svg>
